<?xml version="1.0" standalone="no"?><!DOCTYPE svg PUBLIC "-//W3C//DTD SVG 1.1//EN" "http://www.w3.org/Graphics/SVG/1.1/DTD/svg11.dtd"><svg t="1599444412307" class="icon" viewBox="0 0 1024 1024" version="1.1" xmlns="http://www.w3.org/2000/svg" p-id="2997" xmlns:xlink="http://www.w3.org/1999/xlink" width="200" height="200"><defs><style type="text/css"></style></defs><path d="M115.7 615.7c-19.4-19.4-19.4-50.8 0-70.1L567.9 93.3l0.2-0.2c3.2-3.1 1.1-8.5-3.4-8.5h-53.3c-7.2 0.5-13.9 3.6-19 8.6L43.6 542.1c-21.3 21.3-21.3 55.8 0 77.1l320.7 320.7c11.6 11.6 30.5 11.6 42.1 0 9.2-9.2 9.2-24.2 0-33.5L115.7 615.7z" p-id="2998"></path><path d="M944.8 97.8l-313.5 19.1c-6.7 0.4-13.1 3.3-17.8 8L193.9 544.4c-18 18-18 47.1 0 65l300.8 300.8c10.8 10.8 28.3 10.8 39 0l432.6-432.6c4.8-4.8 7.6-11.1 8-17.8l19.2-313.3c1.7-27.6-21.2-50.4-48.7-48.7z m-124.7 232c-32.5 0-58.8-26.3-58.8-58.8s26.3-58.8 58.8-58.8 58.8 26.3 58.8 58.8-26.4 58.8-58.8 58.8z" p-id="2999"></path></svg>